*iNFO*  *iNFO*  *iNFO*  *iNFO*  *iNFO*


The Karate Kid. La leggenda continua.2010 BRRip 720p.H264 MarGelaTu.mp4
-----------------------------------------------------------------------------------
  http://www.imdb.com/title/tt1155076/

   General
      Format : MPEG-4
      Format profile : Base Media / Version 2
      Codec ID : mp42
      File size : 2.47 GiB
      Duration : 2h 14mn
      Overall bit rate : 2 630 Kbps
   
   Video #1
      ID : 1
      Format : AVC
      Format/Info : Advanced Video Codec
      Format profile : High@L3.1
      Format settings, CABAC : Yes
      Format settings, ReFrames : 6 frames
      Codec ID : avc1
      Codec ID/Info : Advanced Video Coding
      Duration : 2h 14mn
      Bit rate mode : Variable
      Bit rate : 2 434 Kbps
      Width : 1 280 pixels
      Height : 528 pixels
      Display aspect ratio : 2.40:1
      Frame rate mode : Variable
      Frame rate : 25.000 fps
      Minimum frame rate : 20.000 fps
      Maximum frame rate : 25.000 fps
      Resolution : 24 bits
      Colorimetry : 4:2:0
      Scan type : Progressive
      Bits/(Pixel*Frame) : 0.144
      Stream size : 2.28 GiB (93%)
      Writing library : x264 core 79
     
   Audio #2
      ID : 2
      Format : AAC
      Format/Info : Advanced Audio Codec
      Format version : Version 4
      Format profile : LC
      Format settings, SBR : No
      Codec ID : 40
      Duration : 2h 14mn
      Bit rate mode : Variable
      Bit rate : 192 Kbps
      Maximum bit rate : 245 Kbps
      Channel(s) : 6 channels
      Channel positions : Front: L C R, Rear: L R, LFE
      Sampling rate : 48.0 KHz
      Resolution : 16 bits
      Stream size : 185 MiB (7%)
      Language : Italian
    -------------------------------------
     Enjoy and send, send send ...

*Encoded/Released By.......: MarGelaTu
